REM DIRINDEX 1\2\6,1\2\7,1\2\8,1\2\9,1\3\10,1\3\11,1\4\12,1\4\13,1\4\14,1\5\15,1\5\16,1\5\17
REM DIRNAME folder01,folder02,folder03,folder04,folder05,folder06,folder07,folder08,folder09,folder10,folder11,folder12,folder13,folder14,folder15,folder16,folder17
TITLE ""
FILE "1900_2_sec02_0180_0200.mp3" MP3
  TRACK 01 AUDIO
    TITLE "0:"
    INDEX 01 00:00:00
  TRACK 02 AUDIO
    TITLE "13:cjc020_2450"
    INDEX 01 00:00:17
  TRACK 03 AUDIO
    TITLE "0:"
    INDEX 01 00:01:56
  TRACK 04 AUDIO
    TITLE "14:cjc020_2451"
    INDEX 01 00:01:66
  TRACK 05 AUDIO
    TITLE "0:"
    INDEX 01 00:03:08
  TRACK 06 AUDIO
    TITLE "13:cjc020_2452"
    INDEX 01 00:03:66
  TRACK 07 AUDIO
    TITLE "0:"
    INDEX 01 00:05:18
  TRACK 08 AUDIO
    TITLE "14:cjc020_2453"
    INDEX 01 00:05:22
  TRACK 09 AUDIO
    TITLE "0:"
    INDEX 01 00:06:41
  TRACK 10 AUDIO
    TITLE "13:cjc020_2454"
    INDEX 01 00:07:21
  TRACK 11 AUDIO
    TITLE "0:"
    INDEX 01 00:08:28
  TRACK 12 AUDIO
    TITLE "14:cjc020_2455"
    INDEX 01 00:08:32
  TRACK 13 AUDIO
    TITLE "0:"
    INDEX 01 00:10:59
  TRACK 14 AUDIO
    TITLE "13:cjc020_2456"
    INDEX 01 00:11:39
  TRACK 15 AUDIO
    TITLE "0:"
    INDEX 01 00:12:34
  TRACK 16 AUDIO
    TITLE "14:cjc020_2457"
    INDEX 01 00:12:36
  TRACK 17 AUDIO
    TITLE "0:"
    INDEX 01 00:14:74
  TRACK 18 AUDIO
    TITLE "13:cjc020_2458"
    INDEX 01 00:15:52
  TRACK 19 AUDIO
    TITLE "0:"
    INDEX 01 00:16:67
  TRACK 20 AUDIO
    TITLE "14:cjc020_2459"
    INDEX 01 00:16:73
  TRACK 21 AUDIO
    TITLE "0:"
    INDEX 01 00:22:40
  TRACK 22 AUDIO
    TITLE "13:cjc020_2460"
    INDEX 01 00:23:24
  TRACK 23 AUDIO
    TITLE "0:"
    INDEX 01 00:24:41
  TRACK 24 AUDIO
    TITLE "14:cjc020_2461"
    INDEX 01 00:24:45
  TRACK 25 AUDIO
    TITLE "0:"
    INDEX 01 00:28:39
  TRACK 26 AUDIO
    TITLE "13:cjc020_2462"
    INDEX 01 00:29:19
  TRACK 27 AUDIO
    TITLE "0:"
    INDEX 01 00:30:38
  TRACK 28 AUDIO
    TITLE "14:cjc020_2463"
    INDEX 01 00:30:44
  TRACK 29 AUDIO
    TITLE "0:"
    INDEX 01 00:33:09
  TRACK 30 AUDIO
    TITLE "13:cjc020_2464"
    INDEX 01 00:33:64
  TRACK 31 AUDIO
    TITLE "0:"
    INDEX 01 00:35:06
  TRACK 32 AUDIO
    TITLE "14:cjc020_2465"
    INDEX 01 00:35:10
  TRACK 33 AUDIO
    TITLE "0:"
    INDEX 01 00:38:59
  TRACK 34 AUDIO
    TITLE "13:cjc020_2466"
    INDEX 01 00:39:39
  TRACK 35 AUDIO
    TITLE "0:"
    INDEX 01 00:40:56
  TRACK 36 AUDIO
    TITLE "14:cjc020_2467"
    INDEX 01 00:40:60
  TRACK 37 AUDIO
    TITLE "0:"
    INDEX 01 00:43:13
  TRACK 38 AUDIO
    TITLE "13:cjc020_2468"
    INDEX 01 00:43:68
  TRACK 39 AUDIO
    TITLE "0:"
    INDEX 01 00:45:06
  TRACK 40 AUDIO
    TITLE "14:cjc020_2469"
    INDEX 01 00:45:12
  TRACK 41 AUDIO
    TITLE "0:"
    INDEX 01 00:47:44
  TRACK 42 AUDIO
    TITLE "13:cjc020_2470"
    INDEX 01 00:48:28
  TRACK 43 AUDIO
    TITLE "0:"
    INDEX 01 00:49:31
  TRACK 44 AUDIO
    TITLE "14:cjc020_2471"
    INDEX 01 00:49:33
  TRACK 45 AUDIO
    TITLE "0:"
    INDEX 01 00:53:19
  TRACK 46 AUDIO
    TITLE "13:cjc020_2472"
    INDEX 01 00:53:70
  TRACK 47 AUDIO
    TITLE "0:"
    INDEX 01 00:55:24
  TRACK 48 AUDIO
    TITLE "14:cjc020_2473"
    INDEX 01 00:55:26
  TRACK 49 AUDIO
    TITLE "0:"
    INDEX 01 00:59:22
  TRACK 50 AUDIO
    TITLE "13:cjc020_2474"
    INDEX 01 01:00:08
  TRACK 51 AUDIO
    TITLE "0:"
    INDEX 01 01:01:15
  TRACK 52 AUDIO
    TITLE "14:cjc020_2475"
    INDEX 01 01:01:19
  TRACK 53 AUDIO
    TITLE "0:"
    INDEX 01 01:04:70
  TRACK 54 AUDIO
    TITLE "13:cjc020_2476"
    INDEX 01 01:05:52
  TRACK 55 AUDIO
    TITLE "0:"
    INDEX 01 01:06:53
  TRACK 56 AUDIO
    TITLE "14:cjc020_2477"
    INDEX 01 01:06:57
  TRACK 57 AUDIO
    TITLE "0:"
    INDEX 01 01:10:55
  TRACK 58 AUDIO
    TITLE "13:cjc020_2478"
    INDEX 01 01:11:37
  TRACK 59 AUDIO
    TITLE "0:"
    INDEX 01 01:12:40
  TRACK 60 AUDIO
    TITLE "14:cjc020_2479"
    INDEX 01 01:12:44
  TRACK 61 AUDIO
    TITLE "0:"
    INDEX 01 01:15:13
  TRACK 62 AUDIO
    TITLE "12:cjc020_2480"
    INDEX 01 01:16:65
  TRACK 63 AUDIO
    TITLE "0:"
    INDEX 01 01:18:70
  TRACK 64 AUDIO
    TITLE "13:cjc020_2481"
    INDEX 01 01:19:68
  TRACK 65 AUDIO
    TITLE "0:"
    INDEX 01 01:21:20
  TRACK 66 AUDIO
    TITLE "14:cjc020_2482"
    INDEX 01 01:21:23
  TRACK 67 AUDIO
    TITLE "0:"
    INDEX 01 01:22:50
  TRACK 68 AUDIO
    TITLE "13:cjc020_2483"
    INDEX 01 01:23:28
  TRACK 69 AUDIO
    TITLE "0:"
    INDEX 01 01:24:32
  TRACK 70 AUDIO
    TITLE "14:cjc020_2484"
    INDEX 01 01:24:37
  TRACK 71 AUDIO
    TITLE "0:"
    INDEX 01 01:28:25
  TRACK 72 AUDIO
    TITLE "13:cjc020_2485"
    INDEX 01 01:29:03
  TRACK 73 AUDIO
    TITLE "0:"
    INDEX 01 01:30:36
  TRACK 74 AUDIO
    TITLE "14:cjc020_2486"
    INDEX 01 01:30:40
  TRACK 75 AUDIO
    TITLE "0:"
    INDEX 01 01:32:68
  TRACK 76 AUDIO
    TITLE "13:cjc020_2487"
    INDEX 01 01:33:52
  TRACK 77 AUDIO
    TITLE "0:"
    INDEX 01 01:35:00
  TRACK 78 AUDIO
    TITLE "14:cjc020_2488"
    INDEX 01 01:35:02
  TRACK 79 AUDIO
    TITLE "0:"
    INDEX 01 01:39:43
  TRACK 80 AUDIO
    TITLE "13:cjc020_2489"
    INDEX 01 01:40:25
  TRACK 81 AUDIO
    TITLE "0:"
    INDEX 01 01:41:44
  TRACK 82 AUDIO
    TITLE "14:cjc020_2490"
    INDEX 01 01:41:52
  TRACK 83 AUDIO
    TITLE "0:"
    INDEX 01 01:43:51
  TRACK 84 AUDIO
    TITLE "13:cjc020_2491"
    INDEX 01 01:44:28
  TRACK 85 AUDIO
    TITLE "0:"
    INDEX 01 01:45:20
  TRACK 86 AUDIO
    TITLE "14:cjc020_2492"
    INDEX 01 01:45:26
  TRACK 87 AUDIO
    TITLE "0:"
    INDEX 01 01:47:70
